<svg xmlns="http://www.w3.org/2000/svg" xmlns:xlink="http://www.w3.org/1999/xlink" viewBox="0 0 30 25" version="1.1" x="0px" y="0px">
    <path d="M24.5089286,8.40277778 C26.0267933,8.40277778 27.3214232,8.96990174 28.3928571,10.1041667 C29.4642911,11.2384316 30,12.5925847 30,14.1666667 C30,15.7870451 29.4642911,17.1643462 28.3928571,18.2986111 C27.3214232,19.432876 26.0267933,20 24.5089286,20 L17.1428571,20 L17.1428571,14.4444444 L20.3571429,14.4444444 L15,8.61111111 L9.64285714,14.4444444 L12.8571429,14.4444444 L12.8571429,20 L6.02678571,20 C4.37499174,20 2.9575952,19.3750063 1.77455357,18.125 C0.591511942,16.8749937 0,15.3935271 0,13.6805556 C0,12.2916597 0.379460491,11.0532462 1.13839286,9.96527778 C1.89732522,8.87730938 2.87945826,8.12500208 4.08482143,7.70833333 C4.26339375,6.68980972 4.72097846,5.84491076 5.45758929,5.17361111 C6.19420011,4.50231146 7.05356652,4.16666667 8.03571429,4.16666667 C8.57143125,4.16666667 9.15178259,4.32870208 9.77678571,4.65277778 C10.4017888,3.26388194 11.3504401,2.14120799 12.6227679,1.28472222 C13.8950956,0.428236458 15.290171,0 16.8080357,0 C18.9509036,0 20.7700818,0.798603125 22.265625,2.39583333 C23.7611682,3.99306354 24.5089286,5.92591458 24.5089286,8.19444444 L24.5089286,8.40277778 Z" fill="#FFFFFF" fill-rule="nonzero" />
</svg>
